<svg width="25" height="20" viewBox="0 0 25 20" fill="none" xmlns="http://www.w3.org/2000/svg">
<g clip-path="url(#clip0_1_2)">
<path d="M8.1796 11.5946L8.16647 11.4187L8.57767 17.0312L8.1796 11.5946Z" fill="black"/>
<path d="M8.1796 11.5946L8.16647 11.4187L8.57767 17.0312L5.16394 17.8313C5.13924 17.8371 5.11413 17.841 5.08883 17.8429C5.0251 17.8479 4.96103 17.8402 4.90028 17.8204C4.83952 17.8005 4.78329 17.7688 4.7348 17.7272C4.68631 17.6856 4.64652 17.6348 4.61771 17.5777C4.5889 17.5207 4.57164 17.4585 4.56691 17.3947L3.4644 2.32685C3.45051 2.13419 3.50588 1.9429 3.62053 1.78744C3.73518 1.63199 3.90158 1.52259 4.08975 1.47895L9.6188 0.182967C11.5234 -0.26347 13.1054 -0.212199 14.1489 0.528975C15.096 1.20249 15.5344 2.08872 15.6405 3.51704C15.6484 3.62593 15.6553 3.73746 15.6595 3.85283C15.7134 5.3162 9.3199 11.4924 8.35715 11.1349C8.06678 11.0271 7.14295 6.23912 7.5888 5.66592C7.74338 5.46719 8.71766 7.12017 8.90472 6.89813C9.91785 5.69556 11.3977 3.71341 10.65 3.40774C9.73929 3.03548 8.81728 2.81021 7.99188 3.00368L8.35715 11.1349C8.16938 11.1784 8.44869 10.9008 8.33445 11.0561C8.22022 11.2114 8.16529 11.4024 8.1796 11.5946Z" fill="black"/>
<path d="M14.5 11H17V17H20V11H23V8H20C20 6.8 21.3333 4.16667 22 3L20 3C17.2 2.6 16.8333 6.16667 17 8H14.5V11Z" stroke="black"/>
</g>
<defs>
<clipPath id="clip0_1_2">
<rect width="25" height="20" fill="white"/>
</clipPath>
</defs>
</svg>
